<svg width="728" height="143" fill="none" xmlns="http://www.w3.org/2000/svg"><g clip-path="url(#a)"><path d="M111.998 34.69c0-11.631 0-13.772-.153-16.197-.153-2.601-.766-3.822-3.291-4.356a15.304 15.304 0 0 0-2.98-.233c-.845 0-1.313-.153-1.313-.687s.534-.692 1.681-.692c4.052 0 8.87.232 11.01.232 3.138 0 7.571-.232 11.089-.232 9.558 0 13.002 3.214 14.223 4.378a13.294 13.294 0 0 1 3.846 9.067c0 10.857-7.956 18.514-18.817 18.514a10.958 10.958 0 0 1-1.606-.079c-.381-.078-.915-.153-.915-.691 0-.609.534-.841 2.14-.841 4.284 0 10.249-4.816 10.249-12.621 0-2.526-.232-7.649-4.512-11.475A11.374 11.374 0 0 0 125 15.796a10.874 10.874 0 0 0-2.98.302c-.381.153-.613.613-.613 1.458V48.17c0 7.036 0 13.081.381 16.37.232 2.144.691 3.826 2.984 4.132 1.292.181 2.595.284 3.899.306.841 0 1.221.233 1.221.609 0 .538-.608.77-1.448.77-5.05 0-9.868-.231-11.855-.231-1.751 0-6.564.231-9.628.231-.997 0-1.531-.231-1.531-.77 0-.377.306-.609 1.221-.609.927.001 1.852-.102 2.757-.306 1.527-.306 1.908-1.987 2.218-4.207.381-3.214.381-9.26.381-16.295l-.009-13.48ZM160.551 39.966c0-9.868 0-11.706-.074-13.768-.153-2.22-.77-2.907-2.906-3.503a12.121 12.121 0 0 0-2.678-.232c-.687 0-1.151-.232-1.151-.687 0-.455.538-.613 1.536-.613 3.501 0 7.794.153 9.19.153 2.293 0 8.411-.153 10.477-.153 4.284 0 9.189.381 12.769 2.754 1.912 1.313 4.739 4.588 4.739 8.948 0 4.816-2.748 9.102-9.329 14.382 5.964 7.346 10.708 13.234 14.76 17.288 3.746 3.752 6.127 4.054 7.19 4.286.527.12 1.067.171 1.606.153a.78.78 0 0 1 .84.688c0 .538-.459.691-1.312.691h-6.425c-3.746 0-5.579-.385-7.343-1.313-2.901-1.454-5.426-4.514-9.19-9.562-2.678-3.502-5.509-7.88-6.345-8.873a1.571 1.571 0 0 0-1.225-.438l-6.044-.154a.482.482 0 0 0-.51.32c-.024.07-.032.142-.024.215v.919c0 6.046.075 11.094.381 13.847.232 1.913.534 3.14 2.6 3.441 1.09.148 2.19.226 3.29.232a.78.78 0 0 1 .841.688c0 .46-.534.691-1.374.691-3.904 0-9.484-.232-10.477-.232-1.313 0-5.584.232-8.258.232-.84 0-1.313-.232-1.313-.691 0-.307.232-.688 1.073-.688a9.877 9.877 0 0 0 2.371-.232c1.379-.302 1.751-1.528 1.987-3.44.307-2.754.307-7.881.307-13.848l.021-11.5Zm8.565 5.052c0 .688.153.92.612 1.147 1.672.44 3.397.645 5.125.609 2.673 0 3.588-.228 4.739-1.068 2.066-1.454 4.376-4.286 4.376-9.632 0-9.193-6.271-11.553-10.249-11.553a24.234 24.234 0 0 0-3.973.232c-.46.153-.613.385-.613.92l-.017 19.345ZM206.063 45.706c0-11.094 7.798-25.476 28.213-25.476 16.979 0 27.526 9.409 27.526 24.329s-10.853 26.617-28.209 26.617c-19.583 0-27.53-13.922-27.53-25.47Zm45.726 1.225c0-14.386-8.643-23.255-19.5-23.255-7.496 0-16.288 3.975-16.288 20.038 0 13.387 7.65 23.947 20.34 23.947 4.731 0 15.444-2.22 15.444-20.73h.004ZM279.092 12.81c.223-1.314.687-1.988 1.313-1.988.626 0 1.072.381 2.065 2.373l20.879 43.144 20.804-43.682c.604-1.222.989-1.835 1.672-1.835.682 0 1.155.766 1.378 2.373l6.958 47.282c.692 4.815 1.453 7.04 3.751 7.727a15.31 15.31 0 0 0 4.735.766c.691 0 1.229.074 1.229.534 0 .613-.923.845-1.991.845-1.912 0-12.459-.232-15.522-.464-1.75-.15-2.21-.381-2.21-.841 0-.38.298-.608.836-.84.438-.154.683-1.147.385-3.288l-4.608-33.666h-.306l-16.678 34.73c-1.75 3.59-2.135 4.281-2.818 4.281-.683 0-1.453-1.532-2.678-3.826-1.838-3.503-7.877-15.222-8.801-17.367-.687-1.603-5.277-11.243-7.951-16.982h-.306l-3.974 30.448a30.414 30.414 0 0 0-.232 3.594c0 1.454.998 2.145 2.293 2.448a14.88 14.88 0 0 0 3.221.385c.604 0 1.138.153 1.138.534 0 .692-.687.845-1.834.845-3.212 0-6.647-.232-8.026-.232-1.457 0-5.124.232-7.575.232-.765 0-1.369-.153-1.369-.845 0-.38.437-.534 1.221-.534a9.71 9.71 0 0 0 2.293-.232c2.144-.438 2.748-3.441 3.137-6.042l7.571-49.877ZM355.639 39.966c0-9.868 0-11.706-.078-13.768-.154-2.22-.762-2.907-2.906-3.503a12.055 12.055 0 0 0-2.674-.232c-.683 0-1.147-.232-1.147-.687 0-.455.53-.613 1.532-.613 3.501 0 7.794.153 9.706.153 2.149 0 17.067.075 18.354 0a26.927 26.927 0 0 0 2.827-.385 8.29 8.29 0 0 1 1.076-.306c.377 0 .438.306.438.617 0 .438-.385 1.221-.538 4.203-.07.691-.223 3.502-.377 4.286-.078.306-.232 1.068-.77 1.068-.437 0-.529-.302-.529-.84a6.134 6.134 0 0 0-.438-2.37c-.538-1.15-1.072-2.066-4.437-2.372-1.147-.153-9.19-.306-10.556-.306-.31 0-.437.231-.437.612v16.063c0 .38.079.692.437.692 1.528 0 10.249 0 11.777-.154 1.606-.157 2.599-.306 3.216-.998.538-.438.757-.836 1.068-.836a.62.62 0 0 1 .52.447c.022.078.028.16.018.24 0 .381-.153 1.45-.538 4.742-.153 1.313-.311 3.9-.311 4.378 0 .534-.066 1.449-.683 1.449-.437 0-.612-.224-.612-.534-.079-.688-.079-1.528-.223-2.369-.385-1.313-1.226-2.298-3.755-2.526-1.221-.149-8.871-.306-10.547-.306-.306 0-.385.306-.385.691v5.17c0 2.216-.074 7.728 0 9.632.145 4.44 2.215 5.433 9.103 5.433 1.75 0 4.581-.074 6.345-.84 1.68-.767 2.442-2.146 2.906-4.816.153-.688.297-.998.757-.998.538 0 .617.845.617 1.536a43.709 43.709 0 0 1-.923 7.189c-.438 1.68-1.068 1.68-3.589 1.68-5.046 0-9.093-.074-12.384-.227-3.291-.074-5.812-.153-7.803-.153-.761 0-2.223.079-3.825.079-1.606.074-3.286.153-4.665.153-.836 0-1.313-.232-1.313-.692 0-.306.232-.687 1.068-.687a9.886 9.886 0 0 0 2.377-.232c1.378-.302 1.75-1.528 1.982-3.441.311-2.754.311-7.88.311-13.847l.008-11.475ZM398.534 39.966c0-9.868 0-11.706-.074-13.768-.153-2.22-.77-2.907-2.906-3.503a12.104 12.104 0 0 0-2.674-.232c-.695 0-1.146-.232-1.146-.687 0-.455.529-.613 1.527-.613 3.501 0 7.798.153 9.702.153 2.07 0 6.888-.153 10.94-.153 8.411 0 19.728 0 27.071 7.442 3.365 3.363 6.35 8.8 6.35 16.523 0 8.186-3.501 14.381-7.343 18.129-3.064 3.064-10.17 7.652-22.555 7.652-2.455 0-5.361-.232-8.034-.385-2.674-.228-5.121-.38-6.805-.38-.762 0-2.215.078-3.829.078-1.598.074-3.283.153-4.657.153-.84 0-1.312-.232-1.312-.692 0-.306.231-.687 1.067-.687a9.967 9.967 0 0 0 2.377-.232c1.378-.302 1.75-1.528 1.982-3.441.306-2.754.306-7.88.306-13.847l.013-11.51Zm9.028 7.193c0 6.882.07 11.855.153 13.156.071 1.606.224 3.905.762 4.592.836 1.222 3.501 2.6 8.796 2.6 6.127 0 10.621-1.072 14.673-4.434 4.376-3.599 5.737-9.413 5.737-16.142 0-8.265-3.282-13.62-6.266-16.198-6.197-5.53-13.549-6.203-18.8-6.203-1.374 0-3.589.153-4.127.46-.617.231-.845.538-.845 1.313-.07 2.215-.07 7.57-.07 12.696l-.013 8.16ZM460.553 39.966c0-9.868 0-11.706-.066-13.768-.153-2.22-.849-2.982-2.302-3.441a8.51 8.51 0 0 0-2.45-.307c-.683 0-1.068-.153-1.068-.766 0-.38.538-.534 1.606-.534 2.521 0 7.111.153 9.024.153 1.684 0 6.043-.153 8.642-.153.836 0 1.375.153 1.375.534 0 .613-.381.766-1.077.766a9.022 9.022 0 0 0-1.982.232c-1.838.302-2.377 1.222-2.521 3.503-.153 2.062-.153 3.9-.153 13.768v11.474c0 6.274 0 11.475.297 14.229.241 1.75.692 2.758 2.687 3.064a24.97 24.97 0 0 0 3.436.232c.765 0 1.076.381 1.076.688 0 .46-.538.691-1.313.691-4.437 0-9.028-.232-10.866-.232-1.527 0-6.126.232-8.782.232-.849 0-1.313-.232-1.313-.691 0-.307.232-.688 1.067-.688a9.942 9.942 0 0 0 2.377-.232c1.374-.302 1.75-1.221 1.982-3.134.306-2.68.306-7.88.306-14.154l.018-11.466ZM491.982 64.14c-6.652-5.585-8.411-12.927-8.411-19.2 0-4.44 1.453-12.088 7.877-17.823 4.888-4.286 11.317-6.887 21.334-6.887a69.243 69.243 0 0 1 9.785.688c2.529.385 4.744.845 6.735 1.072.761.075.984.381.984.767 0 .534-.153 1.313-.297 3.594-.158 2.14-.158 5.735-.232 7.035-.079.92-.302 1.607-.915 1.607-.538 0-.691-.534-.691-1.375a9.153 9.153 0 0 0-2.6-6.041c-2.293-2.22-6.804-3.827-13.001-3.827-5.89 0-9.627 1.069-12.691 3.673-4.967 4.282-6.196 10.555-6.196 16.904 0 15.454 11.929 22.795 20.957 22.795 5.965 0 9.247-.438 11.92-3.44a10.537 10.537 0 0 0 2.302-4.379c.154-.993.307-1.313.836-1.313.438 0 .762.613.762 1.147 0 .766-.762 6.427-1.445 8.646-.306 1.147-.617 1.454-1.75 1.913-2.678 1.069-7.807 1.45-12.166 1.45-9.172.03-16.979-1.879-23.097-7.005ZM552.701 53.967c-.385 0-.438.074-.617.437l-3.589 8.721a11.913 11.913 0 0 0-.989 3.975c0 1.152.604 1.84 2.674 1.84h.989c.849 0 1.002.306 1.002.686 0 .539-.394.692-1.076.692-2.215 0-5.352-.232-7.488-.232-.691 0-4.293.232-7.803.232-.849 0-1.225-.153-1.225-.692 0-.38.223-.687.762-.687.617 0 1.378-.079 1.991-.079 3.063-.438 4.205-2.447 5.584-5.735l17.579-40.929c.77-1.834 1.312-2.6 1.991-2.6.993 0 1.313.613 1.991 2.066 1.61 3.594 12.848 30.208 17.128 40.089 2.599 5.888 4.516 6.728 5.737 6.956.833.143 1.676.22 2.521.232.617 0 .914.232.914.687 0 .539-.376.692-2.897.692-2.376 0-7.273 0-12.922-.153-1.23-.079-1.991-.079-1.991-.539 0-.38.153-.613.835-.687a1.02 1.02 0 0 0 .617-1.453l-5.207-13.082a.63.63 0 0 0-.683-.437h-15.828Zm14.393-3.608c.306 0 .385-.153.306-.385l-6.35-16.522c-.074-.232-.153-.613-.297-.613-.241 0-.307.38-.394.613l-6.512 16.47c-.153.306 0 .437.228.437h13.019Z" fill="#545859"/><path d="M53.564 29.94S47.717 41.06 54 51.922l11.252 19.403s6.305 10.866 6.187-1.694L70.89 9.74s-.114-12.57-5.956-1.445l-11.37 21.645Z" fill="#00965E"/><path d="M30.497 37.61s12.542-.608 18.7-11.548L60.203 6.519s6.161-10.945-4.6-4.47L4.298 32.917s-10.761 6.497 1.776 5.871l24.424-1.177Z" fill="#43B02A"/><path d="M48.488 54.15S41.88 43.464 29.333 43.376l-22.213.289s-12.774-.521-1.89 5.752l51.861 29.92s10.884 6.286 4.267-4.4L48.488 54.15ZM118.396 125.09l-14.231-21.679h8.455l9.308 15.095 9.413-15.095h8.026l-14.232 21.679v16.216h-6.739V125.09ZM150.071 136.167c4.708 0 7.544-3.691 7.544-7.706 0-4.014-2.836-7.709-7.544-7.709-4.709 0-7.545 3.695-7.545 7.709 0 4.015 2.836 7.706 7.545 7.706Zm0-21.194c7.754 0 13.964 5.407 13.964 13.488 0 8.082-6.21 13.489-13.964 13.489-7.755 0-13.965-5.407-13.965-13.489 0-8.081 6.206-13.488 13.965-13.488ZM193.46 141.306h-6.1v-4.12h-.114c-1.177 2.566-3.584 4.763-7.877 4.763-6.901 0-9.365-4.872-9.365-10.117v-16.198h6.424v13.007c0 2.832.214 7.543 4.704 7.543 4.228 0 5.886-3.104 5.886-6.528v-14.009h6.442v25.659ZM200.733 115.616h6.42v4.067h.109a8.167 8.167 0 0 1 7.597-4.71c.78.016 1.553.143 2.298.376v6.204a13.049 13.049 0 0 0-3.103-.478c-6.044 0-6.901 5.083-6.901 6.475v13.756h-6.42v-25.69ZM237.97 103.411h6.739v15.095h17.71v-15.095h6.739v37.895h-6.739v-16.698h-17.71v16.698h-6.739v-37.895ZM295.337 125.891c-.049-3.747-2.512-6.103-6.525-6.103-3.799 0-6.153 2.413-6.634 6.103h13.159Zm-13.159 4.816c.437 3.8 3.317 6.103 6.901 6.103 3.212 0 5.295-1.498 6.901-3.503l4.604 3.503a13.375 13.375 0 0 1-10.862 5.139c-7.759 0-13.964-5.406-13.964-13.488s6.205-13.488 13.964-13.488c7.168 0 12.039 5.03 12.039 13.97v1.751l-19.583.013ZM323.414 129.796h-1.313c-3.532 0-9.628.272-9.628 3.962 0 2.356 2.407 3.371 4.495 3.371 4.376 0 6.472-2.298 6.472-5.888l-.026-1.445Zm.372 7.977h-.158c-1.82 2.889-4.814 4.176-8.24 4.176-4.761 0-9.361-2.626-9.361-7.709 0-8.349 9.737-8.94 16.157-8.94h1.597v-.692c0-3.16-2.459-4.815-5.881-4.815a10.112 10.112 0 0 0-6.849 2.675l-3.369-3.371c2.835-2.89 6.848-4.12 10.914-4.12 10.966 0 10.966 7.92 10.966 11.562v14.771h-5.781l.005-3.537ZM342.992 100.841h-6.42v40.465h6.42v-40.465ZM347.382 121.076v-5.46h5.282v-7.442h6.433v7.442h7.067v5.46h-7.067v11.238c0 2.569.752 4.176 3.588 4.176 1.12 0 2.674-.214 3.501-.805v5.406c-1.339.644-3.588.854-5.085.854-6.796 0-8.402-3.065-8.402-9.097v-11.772h-5.317ZM377.608 119.202h.109c1.015-2.141 3.584-4.229 7.54-4.229 6.906 0 9.365 4.868 9.365 10.117v16.198h-6.42v-13.002c0-2.837-.214-7.548-4.708-7.548-4.228 0-5.886 3.104-5.886 6.532v14.01h-6.42v-40.439h6.42v18.361ZM406.18 133.382a4.182 4.182 0 0 1 4.28 4.071 4.242 4.242 0 0 1-4.28 4.173c-2.25 0-4.28-1.752-4.28-4.067a4.236 4.236 0 0 1 4.28-4.177Z" fill="#009739"/><path d="M465.253 122.358c0-8.72-6.096-15.734-14.98-15.734-8.883 0-14.979 7.005-14.979 15.734 0 8.73 6.096 15.735 14.979 15.735 8.884 0 14.98-7.005 14.98-15.735Zm-34.773 0c0-11.452 8.288-19.91 19.793-19.91 11.505 0 19.793 8.458 19.793 19.91 0 11.453-8.288 19.911-19.793 19.911-11.505 0-19.793-8.458-19.793-19.911ZM498.389 135.365c0 2.303.214 4.282.214 5.941h-3.938c0-1.34-.105-2.732-.105-4.12h-.11c-1.12 2.461-4.223 4.763-8.345 4.763-6.564 0-9.522-4.176-9.522-10.222v-15.472h4.174v15.043c0 4.172 1.821 6.794 5.724 6.794 5.405 0 7.759-3.905 7.759-9.631v-12.206h4.149v19.11ZM506.288 122.196c0-2.298-.21-4.281-.21-5.94h3.938c0 1.339.105 2.731.105 4.124h.105c1.125-2.465 4.228-4.764 8.346-4.764a4.976 4.976 0 0 1 1.715.267l-.267 4.225a8 8 0 0 0-2.249-.319c-5.081 0-7.33 3.585-7.33 9.311v12.206h-4.175l.022-19.11ZM540.745 103.411h6.687l12.839 29.704h.11l12.944-29.704h6.53v37.895h-4.495v-31.793h-.109l-13.588 31.793h-2.731l-13.588-31.793h-.105v31.793h-4.494v-37.895ZM588.896 116.255h4.175v25.051h-4.175v-25.051Zm2.087-12.844a3.063 3.063 0 0 1 3.064 3.064 3.079 3.079 0 0 1-.787 2.348 3.057 3.057 0 0 1-3.501.739 3.061 3.061 0 0 1-1.813-3.087c0-.813.323-1.592.897-2.167a3.067 3.067 0 0 1 2.167-.897M601.897 134.721c1.659 2.036 3.475 3.371 6.42 3.371 2.626 0 5.509-1.12 5.509-3.852 0-2.732-2.673-3.371-5.352-3.94-4.756-1.073-8.826-2.088-8.826-7.281 0-4.872 4.708-7.385 9.365-7.385 3.531 0 6.791 1.335 8.507 4.548l-3.501 2.299a5.96 5.96 0 0 0-5.295-2.995c-2.302 0-4.923 1.125-4.923 3.481 0 2.084 2.993 2.994 6.31 3.638 4.442.875 8.188 2.46 8.188 7.49 0 5.692-5.028 7.881-10.004 7.881-4.227 0-7.278-1.125-9.737-4.658l3.339-2.597ZM624.688 134.721c1.659 2.036 3.475 3.371 6.42 3.371 2.626 0 5.509-1.12 5.509-3.852 0-2.732-2.673-3.371-5.347-3.94-4.761-1.073-8.831-2.088-8.831-7.281 0-4.872 4.709-7.385 9.365-7.385 3.531 0 6.791 1.335 8.507 4.548l-3.501 2.299a5.96 5.96 0 0 0-5.295-2.995c-2.302 0-4.923 1.125-4.923 3.481 0 2.084 2.993 2.994 6.314 3.638 4.438.875 8.184 2.46 8.184 7.49 0 5.692-5.028 7.881-10.004 7.881-4.227 0-7.277-1.125-9.737-4.658l3.339-2.597ZM647.322 116.255h4.174v25.051h-4.174v-25.051Zm2.087-12.844a3.065 3.065 0 1 1-.001 6.13 3.065 3.065 0 0 1 .001-6.13ZM671.714 138.092c5.405 0 8.884-4.067 8.884-9.311 0-5.245-3.479-9.312-8.884-9.312-5.404 0-8.879 4.067-8.879 9.312 0 5.244 3.501 9.311 8.879 9.311Zm0-22.476c7.707 0 13.378 5.35 13.378 13.165 0 7.814-5.689 13.168-13.378 13.168s-13.373-5.354-13.373-13.168c0-7.815 5.689-13.165 13.373-13.165ZM691.564 122.196c0-2.298-.214-4.281-.214-5.941h3.938c0 1.34.11 2.732.11 4.124h.105c1.124-2.464 4.227-4.763 8.345-4.763 6.564 0 9.527 4.172 9.527 10.223v15.467H709.2v-15.038c0-4.177-1.821-6.799-5.728-6.799-5.401 0-7.755 3.905-7.755 9.631v12.206h-4.175l.022-19.11ZM728 138.416a3.216 3.216 0 0 1-3.21 3.095 3.213 3.213 0 1 1 3.21-3.095Z" fill="#545859"/></g><defs><clipPath id="a"><path fill="#fff" d="M0 0h728v143H0z"/></clipPath></defs></svg>
